<svg xmlns="http://www.w3.org/2000/svg" viewBox="0 0 192 192">
  <defs>
    <radialGradient id="bg" cx="50%" cy="40%" r="55%">
      <stop offset="0%" stop-color="#1a2438"/>
      <stop offset="100%" stop-color="#0a1628"/>
    </radialGradient>
    <radialGradient id="sun" cx="65%" cy="30%" r="20%">
      <stop offset="0%" stop-color="#e0bc6a"/>
      <stop offset="60%" stop-color="#c89b3c"/>
      <stop offset="100%" stop-color="#c89b3c" stop-opacity="0"/>
    </radialGradient>
  </defs>
  <rect width="192" height="192" rx="30" fill="url(#bg)"/>
  <circle cx="131" cy="60" r="30" fill="url(#sun)"/>
  <path d="M0,165 L30,135 L56,124 L82,98 L97,68 L109,53 L120,57 L135,82 L150,105 L168,109 L192,128 L192,192 L0,192 Z" fill="#3d4f6b" opacity="0.45"/>
  <path d="M0,192 L15,173 L37,162 L64,143 L82,120 L97,105 L113,113 L128,135 L150,150 L168,158 L192,165 L192,192 Z" fill="#1a2438"/>
  <g transform="translate(96, 137)" fill="#c89b3c">
    <path d="M-34,0 Q-19,-11 0,-7 Q19,-4 34,0 L34,7 Q19,15 0,11 Q-19,7 -34,7 Z"/>
    <path d="M-24,-6 Q-19,-19 0,-19 Q19,-19 24,-6 L19,-6 Q15,-11 0,-11 Q-15,-11 -19,-6 Z"/>
  </g>
</svg>
