<svg xmlns="http://www.w3.org/2000/svg" viewBox="0 0 512 512">
  <defs>
    <radialGradient id="bg" cx="50%" cy="50%" r="60%">
      <stop offset="0%" stop-color="#1a2438"/>
      <stop offset="100%" stop-color="#0a1628"/>
    </radialGradient>
  </defs>
  <!-- Maskable: full bleed background, content in safe zone (центральные 80%) -->
  <rect width="512" height="512" fill="url(#bg)"/>
  <!-- Содержимое в центре с safe zone -->
  <g transform="translate(256, 256)">
    <circle cx="80" cy="-90" r="50" fill="#c89b3c" opacity="0.85"/>
    <path d="M-160,80 L-110,30 L-70,15 L-30,-25 L-10,-65 L10,-80 L30,-75 L60,-30 L90,5 L130,15 L160,40 L160,140 L-160,140 Z" fill="#3d4f6b" opacity="0.5"/>
    <g transform="translate(0, 70)" fill="#c89b3c">
      <path d="M-90,0 Q-50,-30 0,-20 Q50,-10 90,0 L90,20 Q50,40 0,30 Q-50,20 -90,20 Z"/>
      <path d="M-65,-15 Q-50,-50 0,-50 Q50,-50 65,-15 L50,-15 Q40,-30 0,-30 Q-40,-30 -50,-15 Z"/>
    </g>
  </g>
</svg>
